<svg id="Layer_1" data-name="Layer 1" xmlns="http://www.w3.org/2000/svg" viewBox="0 0 122.88 108.79"><defs><style>.cls-1{fill-rule:evenodd;}</style></defs><title>financial-services</title><path class="cls-1" d="M28.42,96.21V59.93H47.77c6.92,1.24,13.84,5,20.75,9.35H81.2c5.73.34,8.74,6.16,3.17,10-4.45,3.25-10.31,3.07-16.32,2.53-4.15-.2-4.33,5.37,0,5.39,1.5.11,3.13-.24,4.56-.24,7.5,0,13.68-1.44,17.46-7.37L92,75.14l18.85-9.35c9.44-3.11,16.14,6.76,9.19,13.62a246.37,246.37,0,0,1-42,24.72c-10.4,6.33-20.81,6.11-31.21,0l-18.4-7.92ZM3.1,56.44H21.3a3.12,3.12,0,0,1,3.1,3.1V96.75a3.11,3.11,0,0,1-3.1,3.1H3.1A3.11,3.11,0,0,1,0,96.75V59.54a3.12,3.12,0,0,1,3.1-3.1ZM16.25,85.83a3.56,3.56,0,1,1-3.55,3.55,3.55,3.55,0,0,1,3.55-3.55Zm87.16-53.6a1.55,1.55,0,0,0-1.15-.37,1.6,1.6,0,0,0-1.06.58l-1.53,1.85a9.64,9.64,0,0,0-1.51-.64,16.38,16.38,0,0,0-1.58-.45l-.24-2.59a1.57,1.57,0,0,0-.55-1.05,1.46,1.46,0,0,0-1.14-.34l-3.26.32a1.62,1.62,0,0,0-1,.55A1.49,1.49,0,0,0,90,31.24l.22,2.37a10.29,10.29,0,0,0-1.53.64,12.84,12.84,0,0,0-1.4.82l-2.06-1.66a1.45,1.45,0,0,0-1.12-.36,1.62,1.62,0,0,0-1.06.57l-2,2.5a1.54,1.54,0,0,0,.21,2.2L83,39.86a9.22,9.22,0,0,0-.63,1.51c-.18.53-.33,1-.46,1.58l-2.58.24a1.54,1.54,0,0,0-1.06.54A1.49,1.49,0,0,0,78,44.88l.32,3.25a1.58,1.58,0,0,0,.55,1.06,1.47,1.47,0,0,0,1.14.36l2.37-.23A9.5,9.5,0,0,0,83,50.85c.24.48.53,1,.82,1.43l-1.66,2a1.44,1.44,0,0,0-.36,1.12,1.58,1.58,0,0,0,.57,1.06l2.52,2.08a1.47,1.47,0,0,0,1.15.34,1.65,1.65,0,0,0,1.08-.55l1.54-1.87a9.22,9.22,0,0,0,1.51.63c.53.18,1,.33,1.58.46L92,60.16a1.64,1.64,0,0,0,.55,1.06,1.49,1.49,0,0,0,1.15.33l3.25-.32A1.58,1.58,0,0,0,98,60.68a1.47,1.47,0,0,0,.36-1.14l-.23-2.37a9.5,9.5,0,0,0,1.53-.65,14.62,14.62,0,0,0,1.43-.82l2,1.66a1.53,1.53,0,0,0,2.21-.21l2.08-2.52a1.5,1.5,0,0,0,.34-1.15,1.69,1.69,0,0,0-.55-1.08l-1.88-1.51a9.25,9.25,0,0,0,.64-1.51,14.89,14.89,0,0,0,.45-1.58l2.59-.24a1.52,1.52,0,0,0,1-.54,1.49,1.49,0,0,0,.34-1.15l-.32-3.25a1.62,1.62,0,0,0-.55-1.06,1.51,1.51,0,0,0-1.15-.36l-2.37.22a11.57,11.57,0,0,0-.65-1.52,8.72,8.72,0,0,0-.82-1.4l1.67-2.06a1.48,1.48,0,0,0,.36-1.12,1.58,1.58,0,0,0-.57-1.06l-2.5-2-.08,0ZM46.31,20V18.61H49V20l.72.07c.62.07,1.19.15,1.73.25s1,.19,1.45.3V24c-.68-.06-1.44-.11-2.29-.15s-1.62-.05-2.31-.05a6.08,6.08,0,0,0-1.11.09,1.46,1.46,0,0,0-.76.35.93.93,0,0,0,.09,1.39,1.73,1.73,0,0,0,1.09.29h1.46a5.18,5.18,0,0,1,2.58.58,3.79,3.79,0,0,1,1.55,1.6A6.83,6.83,0,0,1,53,33.9a3.57,3.57,0,0,1-2.08,1.5,9.2,9.2,0,0,1-1.91.34v1.75h-2.7V35.75H46.1c-.46,0-.77-.08-1.22-.13l-1.29-.2q-.63-.12-1.2-.27V31.73l1.63.11,1.77.07,1.67,0a5.84,5.84,0,0,0,1.22-.11,1.51,1.51,0,0,0,.73-.36.74.74,0,0,0-.1-1.2,1.31,1.31,0,0,0-.8-.25H47.33a5.91,5.91,0,0,1-3.9-1.13c-1.91-1.62-1.77-6.14.13-7.71A5,5,0,0,1,46.31,20ZM62.06,7.62a1.09,1.09,0,0,0-.42-.23.69.69,0,0,0-.32,0,1.28,1.28,0,0,0-.43.12.88.88,0,0,0-.31.27l-2.53,3a1.53,1.53,0,0,1-1.88.37,11.47,11.47,0,0,0-1.06-.5c-.39-.17-.78-.31-1.17-.44s-.78-.25-1.23-.38-.82-.23-1.21-.32a1.51,1.51,0,0,1-1.18-1.42L50,4a1.29,1.29,0,0,0-.13-.42,1.13,1.13,0,0,0-.24-.3.79.79,0,0,0-.32-.18,1.45,1.45,0,0,0-.43,0l-5.3.53a1.42,1.42,0,0,0-.42.11,1.38,1.38,0,0,0-.35.28,1.17,1.17,0,0,0-.18.35l0,0a1.25,1.25,0,0,0,0,.34l.37,3.89a1.52,1.52,0,0,1-1.09,1.6q-.49.16-1.11.42a9.91,9.91,0,0,0-1.08.51l-.06,0c-.34.17-.7.36-1,.56l-.1.06c-.34.2-.67.41-1,.61a1.5,1.5,0,0,1-1.79-.07L32.28,9.55a1.21,1.21,0,0,0-.38-.23.64.64,0,0,0-.31,0,1.21,1.21,0,0,0-.42.13l-.06,0a1.07,1.07,0,0,0-.25.23L27.5,13.76a1.3,1.3,0,0,0-.23.41.8.8,0,0,0,0,.34v.07a1.2,1.2,0,0,0,.11.35l0,.05a1.16,1.16,0,0,0,.24.26l3,2.53A1.51,1.51,0,0,1,31,19.66a10.29,10.29,0,0,0-.49,1.05c-.17.41-.32.8-.44,1.17s-.25.78-.38,1.22-.23.84-.32,1.22A1.53,1.53,0,0,1,28,25.5l-4.12.37a1.09,1.09,0,0,0-.42.13.93.93,0,0,0-.3.23.94.94,0,0,0-.18.34,1.06,1.06,0,0,0,0,.41l.53,5.31a1.35,1.35,0,0,0,.12.43,1.54,1.54,0,0,0,.27.34,1.25,1.25,0,0,0,.34.18.93.93,0,0,0,.38,0l3.89-.37A1.52,1.52,0,0,1,30,34q.16.49.42,1.11A10.88,10.88,0,0,0,31,36.19l.06.13c.16.32.35.66.56,1l0,.08c.2.35.41.69.62,1a1.52,1.52,0,0,1-.1,1.77l-2.77,3.38a1.84,1.84,0,0,0-.18.33.6.6,0,0,0,0,.3,1.28,1.28,0,0,0,.12.43,1,1,0,0,0,.27.31c1.39,1.14,2.79,2.29,4.16,3.44a.92.92,0,0,0,.31.16,1,1,0,0,0,.39,0h0a1.5,1.5,0,0,0,.44-.12l.05,0a1,1,0,0,0,.27-.21l2.5-3a1.51,1.51,0,0,1,1.89-.37,10.37,10.37,0,0,0,1.06.5c.39.16.78.31,1.17.44s.77.25,1.22.38.83.23,1.22.32a1.5,1.5,0,0,1,1.17,1.42L45.84,52a1.14,1.14,0,0,0,.13.43,1,1,0,0,0,.23.3.9.9,0,0,0,.33.18,1.14,1.14,0,0,0,.42,0l5.3-.52a1.34,1.34,0,0,0,.44-.12l0,0A1.74,1.74,0,0,0,53,52a1.2,1.2,0,0,0,.21-.38.9.9,0,0,0,0-.37l-.37-3.9a1.51,1.51,0,0,1,1-1.57c.4-.14.79-.28,1.16-.44l.11,0c.32-.14.65-.3,1-.48l.06,0c.38-.19.75-.38,1.09-.58s.71-.43,1.1-.67a1.52,1.52,0,0,1,1.77.1l3.38,2.77a1.35,1.35,0,0,0,.33.18h0a.74.74,0,0,0,.33,0,1,1,0,0,0,.42-.11,1.25,1.25,0,0,0,.31-.27c1.12-1.38,2.27-2.83,3.44-4.17a1.1,1.1,0,0,0,.15-.31.83.83,0,0,0,0-.39v0a1.5,1.5,0,0,0-.12-.44,1.07,1.07,0,0,0-.27-.34l-3-2.43a1.5,1.5,0,0,1-.38-1.89c.18-.34.35-.7.5-1.06s.31-.8.44-1.17.25-.79.38-1.23.22-.81.31-1.22a1.52,1.52,0,0,1,1.45-1.17L72,30a1.35,1.35,0,0,0,.43-.12,1.13,1.13,0,0,0,.3-.24,1.35,1.35,0,0,0,.18-.33v0a1.24,1.24,0,0,0,0-.39l-.52-5.3a1.43,1.43,0,0,0-.12-.43l0-.06a1.53,1.53,0,0,0-.25-.28,1.05,1.05,0,0,0-.34-.19h0a.72.72,0,0,0-.33,0l-3.9.37a1.52,1.52,0,0,1-1.56-1c-.13-.36-.28-.74-.45-1.16S65,20,64.85,19.68l0-.07a11.45,11.45,0,0,0-.56-1c-.2-.33-.42-.68-.66-1a1.52,1.52,0,0,1,.12-1.86l2.69-3.32a1.41,1.41,0,0,0,.22-.39.73.73,0,0,0,0-.3,1.26,1.26,0,0,0-.13-.43l0-.06a1,1,0,0,0-.22-.25l-3.71-3a1.62,1.62,0,0,1-.5-.27ZM46.52,13.19a16.75,16.75,0,0,1,2.92,0h0a15.52,15.52,0,0,1,2.9.58A14.54,14.54,0,0,1,55,14.9a15.44,15.44,0,0,1,2.37,1.57h0a14.62,14.62,0,0,1,2,2A15.29,15.29,0,0,1,61,20.9a14.26,14.26,0,0,1,1.68,5.65,17,17,0,0,1,0,2.94v0a14.47,14.47,0,0,1-.58,2.9l0,.06A15.47,15.47,0,0,1,61,35.08l0,.06a15.73,15.73,0,0,1-1.54,2.31h0a14.15,14.15,0,0,1-2,2A15.24,15.24,0,0,1,55,41.07a13.75,13.75,0,0,1-2.72,1.14h-.05a14.78,14.78,0,0,1-2.88.54,17,17,0,0,1-2.94,0,14.78,14.78,0,0,1-2.93-.59,15.12,15.12,0,0,1-2.65-1.11,14.53,14.53,0,0,1-2.37-1.57h0a15.27,15.27,0,0,1-2-2,16.48,16.48,0,0,1-1.61-2.4,13.75,13.75,0,0,1-1.14-2.72v-.06a14,14,0,0,1-.54-2.87v0a15.72,15.72,0,0,1,0-2.91,15,15,0,0,1,.57-2.94,15.61,15.61,0,0,1,1.12-2.65,15.44,15.44,0,0,1,1.57-2.37h0a15.26,15.26,0,0,1,4.43-3.62,14,14,0,0,1,2.71-1.13,14.43,14.43,0,0,1,2.93-.55Zm2.72,2.18a15.37,15.37,0,0,0-2.54,0h0a12.16,12.16,0,0,0-2.49.46,11.71,11.71,0,0,0-2.28,1,13.22,13.22,0,0,0-2.08,1.39,12,12,0,0,0-1.72,1.7,12.92,12.92,0,0,0-2.29,4.29,12,12,0,0,0-.5,2.49,15.26,15.26,0,0,0,0,2.53v0a12.23,12.23,0,0,0,.45,2.44v.05a12.07,12.07,0,0,0,1,2.29,14.38,14.38,0,0,0,1.39,2.07,12.65,12.65,0,0,0,1.7,1.73,13.82,13.82,0,0,0,2,1.33,12.56,12.56,0,0,0,2.28.95,12,12,0,0,0,2.48.5,15.63,15.63,0,0,0,2.56,0,12.33,12.33,0,0,0,2.45-.45h0a12.07,12.07,0,0,0,2.29-1A14.49,14.49,0,0,0,56,37.77a12.57,12.57,0,0,0,1.72-1.7,12.9,12.9,0,0,0,1.3-2l0-.05a13.71,13.71,0,0,0,1-2.23v0a12.42,12.42,0,0,0,.49-2.47v0a13.68,13.68,0,0,0,0-2.56A11.92,11.92,0,0,0,59.11,22,13.75,13.75,0,0,0,56,18.15a13.64,13.64,0,0,0-2-1.33,13.93,13.93,0,0,0-2.27-1,12.61,12.61,0,0,0-2.46-.49ZM62.56,4.5a4.57,4.57,0,0,1,.95.45,1.44,1.44,0,0,1,.59.3L68.18,8.6a4,4,0,0,1,.93,1.08l.08.13a4.31,4.31,0,0,1,.48,1.51,3.82,3.82,0,0,1-.17,1.62,4.26,4.26,0,0,1-.74,1.33l-2,2.52.14.23a13.33,13.33,0,0,1,.71,1.35c.24.48.44.9.6,1.29l.09.22L71,19.62a3.79,3.79,0,0,1,1.55.14l.09,0a4.35,4.35,0,0,1,1.28.7l.13.11a4.14,4.14,0,0,1,.88,1.1l.08.13a4.43,4.43,0,0,1,.42,1.44c0,1.35.35,3.92.53,5.34a4,4,0,0,1-.11,1.51l0,.08a4,4,0,0,1-.75,1.4l0,.05a3.87,3.87,0,0,1-1.19.94,4.1,4.1,0,0,1-1.51.46l-3.19.29-.08.3c-.12.41-.26.86-.43,1.35s-.33,1-.51,1.38l-.08.19,2.21,1.77A4.36,4.36,0,0,1,71.6,41v0A4,4,0,0,1,70.8,44l-3.48,4.21a4.16,4.16,0,0,1-1.21,1,4.09,4.09,0,0,1-1.52.47A3.82,3.82,0,0,1,63,49.52l-.09,0a4.36,4.36,0,0,1-1.25-.68l-2.6-2.12-.27.16c-.44.25-.87.49-1.28.69s-.77.38-1.18.56l-.36.16L56.26,51a3.88,3.88,0,0,1-.17,1.64A4.22,4.22,0,0,1,55.33,54l0,.06a4.31,4.31,0,0,1-1.13.9l-.1.06a4.47,4.47,0,0,1-1.43.43c-1.36,0-3.93.34-5.35.52a4,4,0,0,1-1.59-.13,4,4,0,0,1-1.4-.75l0,0a4.15,4.15,0,0,1-1-1.18,4.21,4.21,0,0,1-.46-1.52l-.28-3.18L42.24,49c-.4-.12-.85-.26-1.35-.43s-.94-.33-1.37-.51L39.31,48l-1.81,2.2a4,4,0,0,1-1.17.91l-.11.06a4.71,4.71,0,0,1-1.37.41H34.8a3.93,3.93,0,0,1-1.6-.13,3.66,3.66,0,0,1-1.33-.68L27.65,47.3a4.08,4.08,0,0,1-1-1.2,4.17,4.17,0,0,1-.48-1.51A3.57,3.57,0,0,1,26.34,43,4.16,4.16,0,0,1,27,41.72l2.12-2.6L29,38.85c-.22-.37-.43-.77-.64-1.19l0,0c-.25-.46-.46-.91-.65-1.35l-.1-.25-2.69.26a3.8,3.8,0,0,1-1.63-.17,4,4,0,0,1-1.29-.7l-.13-.11a4,4,0,0,1-1-1.23,4.21,4.21,0,0,1-.43-1.44c0-1.34-.34-3.92-.52-5.33a3.89,3.89,0,0,1,.13-1.6,3.75,3.75,0,0,1,.75-1.4l0,0A4.19,4.19,0,0,1,22,23.32a4.09,4.09,0,0,1,1.51-.45l3.19-.29.09-.3c.11-.41.26-.86.42-1.36s.34-1,.51-1.37l.09-.21-2.1-1.75a4.18,4.18,0,0,1-1-1.1l-.06-.11a4,4,0,0,1-.46-1.44v-.07a3.77,3.77,0,0,1,.15-1.61,4.29,4.29,0,0,1,.77-1.4l3.36-4.09a4.21,4.21,0,0,1,1.09-.93l.13-.08a4.11,4.11,0,0,1,1.5-.47,3.57,3.57,0,0,1,1.63.17,4.22,4.22,0,0,1,1.32.74l2.54,2L37,9.07c.4-.24.82-.47,1.23-.67s.89-.44,1.3-.62l.25-.1L39.53,5a3.83,3.83,0,0,1,.14-1.56l0-.08a4.22,4.22,0,0,1,.7-1.28l.1-.13A4.15,4.15,0,0,1,41.74,1,4,4,0,0,1,43.18.55C44.53.55,47.1.21,48.51,0a4.06,4.06,0,0,1,1.6.13,4.2,4.2,0,0,1,1.4.74l.05,0a4.29,4.29,0,0,1,.94,1.18A4.09,4.09,0,0,1,53,3.64l.29,3.19.3.09c.41.11.86.26,1.36.42s.94.33,1.37.51l.21.09,1.75-2.1A4.1,4.1,0,0,1,61,4.35a3.79,3.79,0,0,1,1.61.15ZM93.5,39.06a6.38,6.38,0,0,1,4.67,1.4,6.4,6.4,0,0,1,1.55,1.9,5.92,5.92,0,0,1,.72,2.41A6.38,6.38,0,0,1,99,49.44,6.53,6.53,0,0,1,97.14,51a6,6,0,0,1-2.41.72,6.71,6.71,0,0,1-2.52-.25,6.8,6.8,0,0,1-2.16-1.15,6.67,6.67,0,0,1-1.54-1.9A6,6,0,0,1,87.79,46,6.51,6.51,0,0,1,88,43.48a6.61,6.61,0,0,1,1.15-2.16,6.53,6.53,0,0,1,1.9-1.54,5.92,5.92,0,0,1,2.41-.72Z"/></svg>