<?xml version="1.0" encoding="utf-8"?>
<!-- Svg Vector Icons : http://www.onlinewebfonts.com/icon -->
<!DOCTYPE svg PUBLIC "-//W3C//DTD SVG 1.1//EN" "http://www.w3.org/Graphics/SVG/1.1/DTD/svg11.dtd">
<svg version="1.1" xmlns="http://www.w3.org/2000/svg" xmlns:xlink="http://www.w3.org/1999/xlink" x="0px" y="0px" viewBox="0 0 1000 1000" enable-background="new 0 0 1000 1000" xml:space="preserve">
<metadata> Svg Vector Icons : http://www.onlinewebfonts.com/icon </metadata>
<g><g transform="translate(0.000000,511.000000) scale(0.100000,-0.100000)"><path d="M4995,5004.2c-120.6-7.8-186.8-38.9-245.1-112.9c-73.9-93.4-77.8-155.6-77.8-852.2v-754.9h-754.9c-700.4,0-758.8-3.9-856.1-81.7l-101.2-77.8V2113c0-957.2,3.9-1011.7,77.8-1085.6c73.9-74,128.4-77.8,852.2-77.8h778.2l11.7-801.6c11.7-786,11.7-801.6,105-875.5c81.7-70,163.4-73.9,1070.1-73.9c786,0,996.1,11.7,1058.4,54.5c66.2,50.6,73.9,120.6,93.4,867.8l19.5,809.4l809.4,19.5c747.1,19.5,817.2,27.2,867.7,93.4c42.8,62.3,54.5,272.4,54.5,1058.4c0,906.6-3.9,988.4-73.9,1070.1c-73.9,93.4-89.5,93.4-875.5,105.1l-801.6,11.7v770.4c0,681-7.8,782.2-66.2,856.1c-66.2,77.8-108.9,81.7-926.1,89.5C5543.7,5011.9,5084.5,5011.9,4995,5004.2z M6423.1,3673.4c0-782.2,19.5-895,182.9-968.9c58.4-27.2,373.5-42.8,828.8-42.8h739.3v-564.2v-564.2h-778.2c-778.2,0-782.1,0-875.5-97.3c-97.3-93.4-97.3-97.3-97.3-875.5v-778.2h-564.2h-564.2v743.2c0,747.1-15.5,852.2-151.7,957.3c-42.8,35-288,46.7-828.9,50.6h-770.4v560.3v564.2l782.1,11.7l782.1,11.7l93.4,108.9c93.4,108.9,93.4,120.6,93.4,867.7v754.9h564.2h564.2V3673.4z"/><path d="M3045.5-961.1c-136.2-15.5-466.9-77.8-739.3-132.3c-272.4-54.5-669.3-116.7-883.3-136.2c-346.3-35-400.8-50.6-474.7-136.2c-50.6-58.4-89.5-128.4-89.5-159.6c0-116.7,120.6-287.9,217.9-311.3c151.8-38.9,587.6,15.6,1358,167.4c502,97.3,766.6,128.4,933.9,116.7c280.2-23.4,836.6-233.5,1579.8-603.1c400.8-202.3,533.1-284.1,572-369.7c70.1-144,15.6-303.5-128.4-373.6c-128.4-62.2-361.9-19.5-1276.3,229.6c-466.9,128.4-564.2,144-645.9,105.1c-260.7-124.5-241.3-435.8,31.1-544.8c284.1-116.7,1568.2-416.4,1766.6-416.4c334.7,3.9,688.8,221.8,805.5,501.9c38.9,97.3,97.3,116.7,1147.9,369.7c1210.1,291.8,1260.8,295.8,1346.3,73.9c50.6-140.1-15.5-299.6-175.1-396.9c-66.1-42.8-463-237.4-879.4-431.9c-1992.3-941.7-2214.1-972.8-3743.4-552.6c-1253,350.2-1525.3,400.8-2179.1,424.2l-568.1,23.3l-101.2-101.2c-128.4-128.4-132.3-295.8-11.7-404.7c74-70,155.6-81.7,610.9-105.1c622.6-27.2,933.9-89.5,2120.7-416.4l895-249H5139c556.4,3.9,630.4,11.7,933.9,112.8c416.4,140.1,1019.5,400.8,1941.7,844.4c817.1,393,1011.7,544.8,1116.7,863.9c190.7,572-221.8,1159.6-817.2,1155.7c-108.9-3.9-653.7-112.9-1210.1-252.9c-556.4-136.2-1015.6-233.5-1023.4-214c-7.8,19.5-62.2,101.2-124.5,186.8c-85.6,120.6-217.9,210.1-614.8,408.6c-797.7,408.6-1529.3,688.8-1914.5,739.3C3352.9-937.7,3181.7-941.6,3045.5-961.1z"/></g></g>
</svg>